<mxfile host="Electron" agent="Mozilla/5.0 (X11; Linux x86_64) AppleWebKit/537.36 (KHTML, like Gecko) draw.io/24.7.17 Chrome/128.0.6613.186 Electron/32.2.5 Safari/537.36" version="24.7.17">
  <diagram name="Page-1" id="gwpifbDKyIBTILsdFafc">
    <mxGraphModel dx="1873" dy="1124" grid="1" gridSize="10" guides="1" tooltips="1" connect="1" arrows="1" fold="1" page="1" pageScale="1" pageWidth="850" pageHeight="1100" math="0" shadow="0">
      <root>
        <mxCell id="0" />
        <mxCell id="1" parent="0" />
        <mxCell id="OKVP6sujibBIXA0t6-Vj-2" value="&lt;i&gt;Начало&lt;/i&gt;" style="rounded=1;whiteSpace=wrap;html=1;glass=0;arcSize=50;" vertex="1" parent="1">
          <mxGeometry x="240" y="80" width="150" height="50" as="geometry" />
        </mxCell>
        <mxCell id="OKVP6sujibBIXA0t6-Vj-4" value="&lt;font face=&quot;GOST2304 Type A&quot;&gt;&lt;i&gt;Исключение&lt;/i&gt;&lt;/font&gt;" style="rhombus;whiteSpace=wrap;html=1;" vertex="1" parent="1">
          <mxGeometry x="660" y="630" width="150" height="100" as="geometry" />
        </mxCell>
        <mxCell id="OKVP6sujibBIXA0t6-Vj-6" value="&lt;font face=&quot;GOST2304 Type A&quot;&gt;&lt;i&gt;В запросе нет заголовка&lt;/i&gt;&lt;/font&gt;&lt;div&gt;&lt;font face=&quot;GOST2304 Type A&quot;&gt;&lt;i&gt;authorization&lt;/i&gt;&lt;/font&gt;&lt;/div&gt;" style="rhombus;whiteSpace=wrap;html=1;" vertex="1" parent="1">
          <mxGeometry x="240" y="150" width="150" height="100" as="geometry" />
        </mxCell>
        <mxCell id="OKVP6sujibBIXA0t6-Vj-8" value="&lt;font face=&quot;GOST2304 Type A&quot;&gt;&lt;i&gt;Ошибка: 401 статус код (пользователь не авторизован)&lt;/i&gt;&lt;/font&gt;" style="rounded=0;whiteSpace=wrap;html=1;" vertex="1" parent="1">
          <mxGeometry x="360" y="260" width="160" height="100" as="geometry" />
        </mxCell>
        <mxCell id="OKVP6sujibBIXA0t6-Vj-11" value="&lt;font face=&quot;GOST2304 Type A&quot;&gt;&lt;i&gt;Заголовок не состоит&lt;/i&gt;&lt;/font&gt;&lt;div&gt;&lt;font face=&quot;GOST2304 Type A&quot;&gt;&lt;i&gt;из двух слов или первое из них&lt;/i&gt;&lt;/font&gt;&lt;/div&gt;&lt;div&gt;&lt;font face=&quot;GOST2304 Type A&quot;&gt;&lt;i&gt;это не Bearer&lt;/i&gt;&lt;/font&gt;&lt;/div&gt;" style="rhombus;whiteSpace=wrap;html=1;" vertex="1" parent="1">
          <mxGeometry x="240" y="380" width="150" height="100" as="geometry" />
        </mxCell>
        <mxCell id="OKVP6sujibBIXA0t6-Vj-14" value="&lt;font face=&quot;GOST2304 Type A&quot;&gt;&lt;i&gt;Ошибка: 401 статус код (пользователь не авторизован)&lt;/i&gt;&lt;/font&gt;" style="rounded=0;whiteSpace=wrap;html=1;" vertex="1" parent="1">
          <mxGeometry x="360" y="490" width="160" height="100" as="geometry" />
        </mxCell>
        <mxCell id="OKVP6sujibBIXA0t6-Vj-15" value="&lt;font face=&quot;GOST2304 Type A&quot;&gt;&lt;i&gt;Взять из заголовка authorization второе слово (это и есть accessToken)&lt;/i&gt;&lt;/font&gt;" style="rounded=0;whiteSpace=wrap;html=1;" vertex="1" parent="1">
          <mxGeometry x="240" y="610" width="150" height="100" as="geometry" />
        </mxCell>
        <mxCell id="OKVP6sujibBIXA0t6-Vj-16" value="&lt;font face=&quot;GOST2304 Type A&quot;&gt;&lt;i&gt;accessToken не валиден&lt;/i&gt;&lt;/font&gt;" style="rhombus;whiteSpace=wrap;html=1;" vertex="1" parent="1">
          <mxGeometry x="660" y="160" width="150" height="100" as="geometry" />
        </mxCell>
        <mxCell id="OKVP6sujibBIXA0t6-Vj-17" value="&lt;font face=&quot;GOST2304 Type A&quot;&gt;&lt;i&gt;Ошибка: 401 статус код (пользователь не авторизован)&lt;/i&gt;&lt;/font&gt;" style="rounded=0;whiteSpace=wrap;html=1;" vertex="1" parent="1">
          <mxGeometry x="800" y="270" width="160" height="100" as="geometry" />
        </mxCell>
        <mxCell id="OKVP6sujibBIXA0t6-Vj-18" value="&lt;font face=&quot;GOST2304 Type A&quot;&gt;&lt;i&gt;Передать в локальные переменные ответа данные о пользователе&lt;/i&gt;&lt;/font&gt;" style="rounded=0;whiteSpace=wrap;html=1;" vertex="1" parent="1">
          <mxGeometry x="660" y="390" width="150" height="100" as="geometry" />
        </mxCell>
        <mxCell id="OKVP6sujibBIXA0t6-Vj-19" value="&lt;font face=&quot;GOST2304 Type A&quot;&gt;&lt;i&gt;Перейти к следующему слою&lt;/i&gt;&lt;/font&gt;" style="rounded=0;whiteSpace=wrap;html=1;" vertex="1" parent="1">
          <mxGeometry x="660" y="510" width="150" height="100" as="geometry" />
        </mxCell>
        <mxCell id="OKVP6sujibBIXA0t6-Vj-20" value="&lt;font face=&quot;GOST2304 Type A&quot;&gt;&lt;i&gt;Перейти к следующему слою, передав ошибку&lt;/i&gt;&lt;/font&gt;" style="rounded=0;whiteSpace=wrap;html=1;" vertex="1" parent="1">
          <mxGeometry x="790" y="740" width="160" height="100" as="geometry" />
        </mxCell>
        <mxCell id="OKVP6sujibBIXA0t6-Vj-21" value="&lt;i&gt;Конец&lt;/i&gt;" style="rounded=1;whiteSpace=wrap;html=1;glass=0;arcSize=50;" vertex="1" parent="1">
          <mxGeometry x="660" y="860" width="150" height="50" as="geometry" />
        </mxCell>
        <mxCell id="OKVP6sujibBIXA0t6-Vj-23" value="" style="endArrow=none;html=1;rounded=0;entryX=0.5;entryY=1;entryDx=0;entryDy=0;exitX=0.5;exitY=0;exitDx=0;exitDy=0;" edge="1" parent="1" source="OKVP6sujibBIXA0t6-Vj-6" target="OKVP6sujibBIXA0t6-Vj-2">
          <mxGeometry width="50" height="50" relative="1" as="geometry">
            <mxPoint x="300" y="180" as="sourcePoint" />
            <mxPoint x="350" y="130" as="targetPoint" />
          </mxGeometry>
        </mxCell>
        <mxCell id="OKVP6sujibBIXA0t6-Vj-24" value="" style="endArrow=none;html=1;rounded=0;entryX=1;entryY=0.5;entryDx=0;entryDy=0;exitX=0.5;exitY=0;exitDx=0;exitDy=0;" edge="1" parent="1" source="OKVP6sujibBIXA0t6-Vj-8" target="OKVP6sujibBIXA0t6-Vj-6">
          <mxGeometry width="50" height="50" relative="1" as="geometry">
            <mxPoint x="325" y="160" as="sourcePoint" />
            <mxPoint x="325" y="140" as="targetPoint" />
            <Array as="points">
              <mxPoint x="440" y="200" />
            </Array>
          </mxGeometry>
        </mxCell>
        <mxCell id="OKVP6sujibBIXA0t6-Vj-25" value="" style="endArrow=none;html=1;rounded=0;entryX=0;entryY=0.5;entryDx=0;entryDy=0;" edge="1" parent="1" target="OKVP6sujibBIXA0t6-Vj-6">
          <mxGeometry width="50" height="50" relative="1" as="geometry">
            <mxPoint x="310" y="370" as="sourcePoint" />
            <mxPoint x="335" y="150" as="targetPoint" />
            <Array as="points">
              <mxPoint x="190" y="370" />
              <mxPoint x="190" y="200" />
            </Array>
          </mxGeometry>
        </mxCell>
        <mxCell id="OKVP6sujibBIXA0t6-Vj-26" value="" style="endArrow=none;html=1;rounded=0;exitX=0.5;exitY=1;exitDx=0;exitDy=0;" edge="1" parent="1" source="OKVP6sujibBIXA0t6-Vj-8">
          <mxGeometry width="50" height="50" relative="1" as="geometry">
            <mxPoint x="400" y="370" as="sourcePoint" />
            <mxPoint x="310" y="370" as="targetPoint" />
            <Array as="points">
              <mxPoint x="440" y="370" />
            </Array>
          </mxGeometry>
        </mxCell>
        <mxCell id="OKVP6sujibBIXA0t6-Vj-27" value="" style="endArrow=none;html=1;rounded=0;entryX=0.5;entryY=0;entryDx=0;entryDy=0;" edge="1" parent="1" target="OKVP6sujibBIXA0t6-Vj-11">
          <mxGeometry width="50" height="50" relative="1" as="geometry">
            <mxPoint x="315" y="370" as="sourcePoint" />
            <mxPoint x="355" y="170" as="targetPoint" />
          </mxGeometry>
        </mxCell>
        <mxCell id="OKVP6sujibBIXA0t6-Vj-28" value="" style="endArrow=none;html=1;rounded=0;entryX=0.5;entryY=0;entryDx=0;entryDy=0;exitX=1;exitY=0.5;exitDx=0;exitDy=0;" edge="1" parent="1" source="OKVP6sujibBIXA0t6-Vj-11" target="OKVP6sujibBIXA0t6-Vj-14">
          <mxGeometry width="50" height="50" relative="1" as="geometry">
            <mxPoint x="325" y="380" as="sourcePoint" />
            <mxPoint x="325" y="390" as="targetPoint" />
            <Array as="points">
              <mxPoint x="440" y="430" />
            </Array>
          </mxGeometry>
        </mxCell>
        <mxCell id="OKVP6sujibBIXA0t6-Vj-29" value="" style="endArrow=none;html=1;rounded=0;entryX=0;entryY=0.5;entryDx=0;entryDy=0;" edge="1" parent="1" target="OKVP6sujibBIXA0t6-Vj-11">
          <mxGeometry width="50" height="50" relative="1" as="geometry">
            <mxPoint x="320" y="600" as="sourcePoint" />
            <mxPoint x="335" y="400" as="targetPoint" />
            <Array as="points">
              <mxPoint x="190" y="600" />
              <mxPoint x="190" y="430" />
            </Array>
          </mxGeometry>
        </mxCell>
        <mxCell id="OKVP6sujibBIXA0t6-Vj-30" value="" style="endArrow=none;html=1;rounded=0;entryX=0.5;entryY=1;entryDx=0;entryDy=0;" edge="1" parent="1" target="OKVP6sujibBIXA0t6-Vj-14">
          <mxGeometry width="50" height="50" relative="1" as="geometry">
            <mxPoint x="320" y="600" as="sourcePoint" />
            <mxPoint x="345" y="410" as="targetPoint" />
            <Array as="points">
              <mxPoint x="440" y="600" />
            </Array>
          </mxGeometry>
        </mxCell>
        <mxCell id="OKVP6sujibBIXA0t6-Vj-31" value="" style="endArrow=none;html=1;rounded=0;entryX=0.5;entryY=0;entryDx=0;entryDy=0;" edge="1" parent="1" target="OKVP6sujibBIXA0t6-Vj-15">
          <mxGeometry width="50" height="50" relative="1" as="geometry">
            <mxPoint x="315" y="600" as="sourcePoint" />
            <mxPoint x="355" y="420" as="targetPoint" />
          </mxGeometry>
        </mxCell>
        <mxCell id="OKVP6sujibBIXA0t6-Vj-35" value="" style="endArrow=none;html=1;rounded=0;entryX=1;entryY=0.5;entryDx=0;entryDy=0;exitX=0.5;exitY=0;exitDx=0;exitDy=0;" edge="1" parent="1" source="OKVP6sujibBIXA0t6-Vj-17" target="OKVP6sujibBIXA0t6-Vj-16">
          <mxGeometry width="50" height="50" relative="1" as="geometry">
            <mxPoint x="745" y="150" as="sourcePoint" />
            <mxPoint x="745" y="170" as="targetPoint" />
            <Array as="points">
              <mxPoint x="880" y="210" />
            </Array>
          </mxGeometry>
        </mxCell>
        <mxCell id="OKVP6sujibBIXA0t6-Vj-36" value="" style="endArrow=none;html=1;rounded=0;exitX=0;exitY=0.5;exitDx=0;exitDy=0;" edge="1" parent="1" source="OKVP6sujibBIXA0t6-Vj-16">
          <mxGeometry width="50" height="50" relative="1" as="geometry">
            <mxPoint x="755" y="160" as="sourcePoint" />
            <mxPoint x="740" y="380" as="targetPoint" />
            <Array as="points">
              <mxPoint x="610" y="210" />
              <mxPoint x="610" y="380" />
            </Array>
          </mxGeometry>
        </mxCell>
        <mxCell id="OKVP6sujibBIXA0t6-Vj-37" value="" style="endArrow=none;html=1;rounded=0;entryX=0.5;entryY=1;entryDx=0;entryDy=0;" edge="1" parent="1" target="OKVP6sujibBIXA0t6-Vj-17">
          <mxGeometry width="50" height="50" relative="1" as="geometry">
            <mxPoint x="740" y="380" as="sourcePoint" />
            <mxPoint x="765" y="190" as="targetPoint" />
            <Array as="points">
              <mxPoint x="880" y="380" />
            </Array>
          </mxGeometry>
        </mxCell>
        <mxCell id="OKVP6sujibBIXA0t6-Vj-38" value="" style="endArrow=none;html=1;rounded=0;entryX=0.5;entryY=0;entryDx=0;entryDy=0;" edge="1" parent="1" target="OKVP6sujibBIXA0t6-Vj-18">
          <mxGeometry width="50" height="50" relative="1" as="geometry">
            <mxPoint x="735" y="380" as="sourcePoint" />
            <mxPoint x="775" y="200" as="targetPoint" />
          </mxGeometry>
        </mxCell>
        <mxCell id="OKVP6sujibBIXA0t6-Vj-39" value="" style="endArrow=none;html=1;rounded=0;entryX=0.5;entryY=0;entryDx=0;entryDy=0;exitX=0.5;exitY=1;exitDx=0;exitDy=0;" edge="1" parent="1" source="OKVP6sujibBIXA0t6-Vj-18" target="OKVP6sujibBIXA0t6-Vj-19">
          <mxGeometry width="50" height="50" relative="1" as="geometry">
            <mxPoint x="745" y="390" as="sourcePoint" />
            <mxPoint x="745" y="400" as="targetPoint" />
          </mxGeometry>
        </mxCell>
        <mxCell id="OKVP6sujibBIXA0t6-Vj-40" value="" style="endArrow=none;html=1;rounded=0;entryX=0.5;entryY=1;entryDx=0;entryDy=0;exitX=0.5;exitY=0;exitDx=0;exitDy=0;" edge="1" parent="1" source="OKVP6sujibBIXA0t6-Vj-4" target="OKVP6sujibBIXA0t6-Vj-19">
          <mxGeometry width="50" height="50" relative="1" as="geometry">
            <mxPoint x="745" y="500" as="sourcePoint" />
            <mxPoint x="745" y="520" as="targetPoint" />
          </mxGeometry>
        </mxCell>
        <mxCell id="OKVP6sujibBIXA0t6-Vj-41" value="" style="endArrow=none;html=1;rounded=0;entryX=1;entryY=0.5;entryDx=0;entryDy=0;exitX=0.5;exitY=0;exitDx=0;exitDy=0;" edge="1" parent="1" source="OKVP6sujibBIXA0t6-Vj-20" target="OKVP6sujibBIXA0t6-Vj-4">
          <mxGeometry width="50" height="50" relative="1" as="geometry">
            <mxPoint x="745" y="640" as="sourcePoint" />
            <mxPoint x="745" y="620" as="targetPoint" />
            <Array as="points">
              <mxPoint x="870" y="680" />
            </Array>
          </mxGeometry>
        </mxCell>
        <mxCell id="OKVP6sujibBIXA0t6-Vj-43" value="" style="endArrow=none;html=1;rounded=0;entryX=0;entryY=0.5;entryDx=0;entryDy=0;" edge="1" parent="1" target="OKVP6sujibBIXA0t6-Vj-4">
          <mxGeometry width="50" height="50" relative="1" as="geometry">
            <mxPoint x="740" y="850" as="sourcePoint" />
            <mxPoint x="830" y="700" as="targetPoint" />
            <Array as="points">
              <mxPoint x="610" y="850" />
              <mxPoint x="610" y="680" />
            </Array>
          </mxGeometry>
        </mxCell>
        <mxCell id="OKVP6sujibBIXA0t6-Vj-44" value="" style="endArrow=none;html=1;rounded=0;exitX=0.5;exitY=1;exitDx=0;exitDy=0;" edge="1" parent="1" source="OKVP6sujibBIXA0t6-Vj-20">
          <mxGeometry width="50" height="50" relative="1" as="geometry">
            <mxPoint x="900" y="770" as="sourcePoint" />
            <mxPoint x="740" y="850" as="targetPoint" />
            <Array as="points">
              <mxPoint x="870" y="850" />
            </Array>
          </mxGeometry>
        </mxCell>
        <mxCell id="OKVP6sujibBIXA0t6-Vj-46" value="" style="endArrow=none;html=1;rounded=0;entryX=0.5;entryY=0;entryDx=0;entryDy=0;" edge="1" parent="1" target="OKVP6sujibBIXA0t6-Vj-21">
          <mxGeometry width="50" height="50" relative="1" as="geometry">
            <mxPoint x="735" y="850" as="sourcePoint" />
            <mxPoint x="745" y="620" as="targetPoint" />
          </mxGeometry>
        </mxCell>
        <mxCell id="OKVP6sujibBIXA0t6-Vj-47" value="&lt;font face=&quot;GOST2304 Type A&quot;&gt;&lt;i&gt;А&lt;/i&gt;&lt;/font&gt;" style="ellipse;whiteSpace=wrap;html=1;aspect=fixed;" vertex="1" parent="1">
          <mxGeometry x="710" y="80" width="50" height="50" as="geometry" />
        </mxCell>
        <mxCell id="OKVP6sujibBIXA0t6-Vj-48" value="&lt;font face=&quot;GOST2304 Type A&quot;&gt;&lt;i&gt;А&lt;/i&gt;&lt;/font&gt;" style="ellipse;whiteSpace=wrap;html=1;aspect=fixed;" vertex="1" parent="1">
          <mxGeometry x="290" y="730" width="50" height="50" as="geometry" />
        </mxCell>
        <mxCell id="OKVP6sujibBIXA0t6-Vj-49" value="" style="endArrow=none;html=1;rounded=0;entryX=0.5;entryY=0;entryDx=0;entryDy=0;exitX=0.5;exitY=1;exitDx=0;exitDy=0;" edge="1" parent="1" source="OKVP6sujibBIXA0t6-Vj-15" target="OKVP6sujibBIXA0t6-Vj-48">
          <mxGeometry width="50" height="50" relative="1" as="geometry">
            <mxPoint x="325" y="610" as="sourcePoint" />
            <mxPoint x="325" y="620" as="targetPoint" />
          </mxGeometry>
        </mxCell>
        <mxCell id="OKVP6sujibBIXA0t6-Vj-50" value="" style="endArrow=none;html=1;rounded=0;entryX=0.5;entryY=0;entryDx=0;entryDy=0;exitX=0.5;exitY=1;exitDx=0;exitDy=0;" edge="1" parent="1" source="OKVP6sujibBIXA0t6-Vj-47" target="OKVP6sujibBIXA0t6-Vj-16">
          <mxGeometry width="50" height="50" relative="1" as="geometry">
            <mxPoint x="325" y="720" as="sourcePoint" />
            <mxPoint x="325" y="740" as="targetPoint" />
          </mxGeometry>
        </mxCell>
      </root>
    </mxGraphModel>
  </diagram>
</mxfile>
